<?xml version="1.0" encoding="UTF-8"?>
<svg width="200" height="300" viewBox="0 0 200 300" xmlns="http://www.w3.org/2000/svg">
  <!-- Colossal Titan Silhouette -->
  <defs>
    <linearGradient id="titanGrad" x1="0%" y1="0%" x2="0%" y2="100%">
      <stop offset="0%" style="stop-color:#dc2626;stop-opacity:1" />
      <stop offset="50%" style="stop-color:#991b1b;stop-opacity:1" />
      <stop offset="100%" style="stop-color:#450a0a;stop-opacity:1" />
    </linearGradient>
    
    <filter id="steamFilter">
      <feTurbulence type="fractalNoise" baseFrequency="0.02" numOctaves="1" result="turbulence"/>
      <feComposite in="turbulence" in2="SourceAlpha" operator="in" result="composite"/>
      <feColorMatrix in="composite" values="0 0 0 0 1 0 0 0 0 1 0 0 0 0 1 0 0 0 0.2 0"/>
    </filter>
  </defs>
  
  <!-- Steam effect -->
  <ellipse cx="100" cy="50" rx="80" ry="40" fill="white" opacity="0.2" filter="url(#steamFilter)">
    <animate attributeName="ry" from="40" to="60" dur="4s" repeatCount="indefinite" />
    <animate attributeName="opacity" from="0.2" to="0.05" dur="4s" repeatCount="indefinite" />
  </ellipse>
  
  <!-- Body -->
  <path d="M 100,100 
           C 50,100 30,120 30,150
           L 30,250
           C 30,280 50,290 100,290
           C 150,290 170,280 170,250
           L 170,150
           C 170,120 150,100 100,100 Z" 
        fill="url(#titanGrad)" 
        stroke="#7f1d1d" 
        stroke-width="2"/>
  
  <!-- Head -->
  <ellipse cx="100" cy="80" rx="60" ry="70" fill="url(#titanGrad)" stroke="#7f1d1d" stroke-width="2"/>
  
  <!-- Face features (skeletal) -->
  <circle cx="80" cy="70" r="15" fill="#450a0a" opacity="0.8"/>
  <circle cx="120" cy="70" r="15" fill="#450a0a" opacity="0.8"/>
  <path d="M 80,100 Q 100,110 120,100" fill="none" stroke="#450a0a" stroke-width="3"/>
  
  <!-- Muscle lines -->
  <path d="M 60,120 L 65,140 M 65,150 L 70,170 M 70,180 L 75,200" 
        stroke="#7f1d1d" stroke-width="2" opacity="0.6"/>
  <path d="M 140,120 L 135,140 M 135,150 L 130,170 M 130,180 L 125,200" 
        stroke="#7f1d1d" stroke-width="2" opacity="0.6"/>
  
  <!-- Arms -->
  <path d="M 40,140 C 20,150 10,180 15,210 L 20,240" 
        fill="none" stroke="url(#titanGrad)" stroke-width="15" stroke-linecap="round"/>
  <path d="M 160,140 C 180,150 190,180 185,210 L 180,240" 
        fill="none" stroke="url(#titanGrad)" stroke-width="15" stroke-linecap="round"/>
  
  <!-- Steam particles -->
  <circle cx="50" cy="60" r="5" fill="white" opacity="0.3">
    <animate attributeName="cy" from="60" to="0" dur="3s" repeatCount="indefinite" />
    <animate attributeName="opacity" from="0.3" to="0" dur="3s" repeatCount="indefinite" />
  </circle>
  <circle cx="150" cy="80" r="7" fill="white" opacity="0.25">
    <animate attributeName="cy" from="80" to="10" dur="3.5s" repeatCount="indefinite" />
    <animate attributeName="opacity" from="0.25" to="0" dur="3.5s" repeatCount="indefinite" />
  </circle>
  <circle cx="100" cy="40" r="6" fill="white" opacity="0.2">
    <animate attributeName="cy" from="40" to="-20" dur="4s" repeatCount="indefinite" />
    <animate attributeName="opacity" from="0.2" to="0" dur="4s" repeatCount="indefinite" />
  </circle>
</svg>