<?xml version="1.0" encoding="UTF-8"?>
<svg width="400" height="400" viewBox="0 0 400 400" xmlns="http://www.w3.org/2000/svg">
  <!-- Wall Stone Texture Pattern -->
  <defs>
    <pattern id="stonePattern" x="0" y="0" width="100" height="100" patternUnits="userSpaceOnUse">
      <!-- Stone blocks -->
      <rect x="0" y="0" width="48" height="48" fill="#8b7355" stroke="#6b5d4f" stroke-width="2"/>
      <rect x="52" y="0" width="48" height="48" fill="#9b8469" stroke="#6b5d4f" stroke-width="2"/>
      <rect x="0" y="52" width="48" height="48" fill="#7d6951" stroke="#6b5d4f" stroke-width="2"/>
      <rect x="52" y="52" width="48" height="48" fill="#8b7355" stroke="#6b5d4f" stroke-width="2"/>
      
      <!-- Cracks and details -->
      <path d="M 20,10 L 25,20 L 22,30" fill="none" stroke="#5a4a3a" stroke-width="1" opacity="0.5"/>
      <path d="M 70,30 L 75,35 L 72,45" fill="none" stroke="#5a4a3a" stroke-width="1" opacity="0.5"/>
      <path d="M 30,70 L 35,75 L 32,85" fill="none" stroke="#5a4a3a" stroke-width="1" opacity="0.5"/>
      
      <!-- Texture dots -->
      <circle cx="15" cy="15" r="1" fill="#5a4a3a" opacity="0.3"/>
      <circle cx="35" cy="25" r="1" fill="#5a4a3a" opacity="0.3"/>
      <circle cx="65" cy="15" r="1" fill="#5a4a3a" opacity="0.3"/>
      <circle cx="85" cy="35" r="1" fill="#5a4a3a" opacity="0.3"/>
      <circle cx="25" cy="65" r="1" fill="#5a4a3a" opacity="0.3"/>
      <circle cx="75" cy="75" r="1" fill="#5a4a3a" opacity="0.3"/>
    </pattern>
    
    <filter id="roughPaper">
      <feTurbulence type="fractalNoise" baseFrequency="0.04" numOctaves="5" result="noise" />
      <feDiffuseLighting in="noise" lighting-color="white" surfaceScale="1">
        <feDistantLight azimuth="45" elevation="60" />
      </feDiffuseLighting>
    </filter>
  </defs>
  
  <!-- Apply pattern -->
  <rect x="0" y="0" width="400" height="400" fill="url(#stonePattern)" filter="url(#roughPaper)" opacity="0.9"/>
  
  <!-- Additional weathering -->
  <rect x="0" y="0" width="400" height="400" fill="#000000" opacity="0.1"/>
</svg>