<?xml version="1.0" encoding="UTF-8"?>
<svg width="200" height="200" viewBox="0 0 200 200" xmlns="http://www.w3.org/2000/svg">
  <!-- Survey Corps Wings of Freedom Logo -->
  <defs>
    <linearGradient id="wingGradient" x1="0%" y1="0%" x2="100%" y2="100%">
      <stop offset="0%" style="stop-color:#1e3a8a;stop-opacity:1" />
      <stop offset="50%" style="stop-color:#3b82f6;stop-opacity:1" />
      <stop offset="100%" style="stop-color:#60a5fa;stop-opacity:1" />
    </linearGradient>
    <linearGradient id="shieldGradient" x1="0%" y1="0%" x2="0%" y2="100%">
      <stop offset="0%" style="stop-color:#fbbf24;stop-opacity:1" />
      <stop offset="100%" style="stop-color:#f59e0b;stop-opacity:1" />
    </linearGradient>
  </defs>
  
  <!-- Outer Shield -->
  <circle cx="100" cy="100" r="95" fill="url(#shieldGradient)" stroke="#92400e" stroke-width="3"/>
  <circle cx="100" cy="100" r="85" fill="#ffffff" stroke="#92400e" stroke-width="2"/>
  
  <!-- Left Wing -->
  <path d="M 40,100 
           C 20,90 10,70 15,50 
           C 20,30 35,20 50,25
           C 30,35 25,50 30,65
           C 35,80 45,90 55,95
           C 40,85 35,70 40,55
           C 45,40 55,35 65,40
           C 50,45 45,55 50,70
           C 55,85 65,95 75,100
           L 100,100 Z" 
        fill="url(#wingGradient)" 
        stroke="#1e3a8a" 
        stroke-width="1.5"/>
  
  <!-- Right Wing (mirrored) -->
  <path d="M 160,100 
           C 180,90 190,70 185,50 
           C 180,30 165,20 150,25
           C 170,35 175,50 170,65
           C 165,80 155,90 145,95
           C 160,85 165,70 160,55
           C 155,40 145,35 135,40
           C 150,45 155,55 150,70
           C 145,85 135,95 125,100
           L 100,100 Z" 
        fill="url(#wingGradient)" 
        stroke="#1e3a8a" 
        stroke-width="1.5"/>
  
  <!-- Center Sword -->
  <rect x="97" y="40" width="6" height="80" fill="#6b7280" stroke="#374151" stroke-width="1"/>
  <path d="M 100,35 L 95,45 L 100,40 L 105,45 Z" fill="#6b7280" stroke="#374151" stroke-width="1"/>
  <rect x="90" y="70" width="20" height="6" rx="2" fill="#6b7280" stroke="#374151" stroke-width="1"/>
  
  <!-- Bottom Shield Details -->
  <path d="M 100,140 L 80,160 L 100,170 L 120,160 Z" fill="url(#shieldGradient)" stroke="#92400e" stroke-width="2"/>
  
  <!-- Decorative Elements -->
  <circle cx="100" cy="130" r="4" fill="#92400e"/>
  <circle cx="85" cy="120" r="3" fill="#92400e"/>
  <circle cx="115" cy="120" r="3" fill="#92400e"/>
</svg>